<svg viewBox="0 0 725 246" width="100%" height="100%" preserveAspectRatio="xMinYMin" fill="none" xmlns="http://www.w3.org/2000/svg">
 	<g transform="translate(0, 110)" width="463" height="136" fill="var(--color--primary-100)">
    <path d="M416.678 34.4089V7.54492H442.07V34.4089H462.678V51.8889H442.07V103.041C442.07 113.161 445.566 115.185 454.582 115.185H462.31V133.401H443.726C420.91 133.401 416.678 126.409 416.678 106.721V51.8889H402.694V34.4089H416.678Z"></path>
    <path d="M370.536 133.4V120.336C364.832 130.456 353.976 135.792 341.648 135.792C317.912 135.792 308.344 121.256 308.344 96.9682V34.4082H333.736V91.4482C333.736 104.696 335.76 115.368 349.928 115.368C366.856 115.368 370.536 101.568 370.536 85.9282V34.4082H395.928V133.4H370.536Z"></path>
    <path d="M252.997 52.0732C239.013 52.0732 229.077 63.2972 229.077 84.0892C229.077 104.881 239.013 115.921 252.997 115.921C266.981 115.921 276.917 104.881 276.917 84.0892C276.917 63.2972 266.981 52.0732 252.997 52.0732ZM252.997 135.793C227.973 135.793 203.317 118.681 203.317 84.0892C203.317 49.3132 227.973 32.2012 252.997 32.2012C278.021 32.2012 302.677 49.3132 302.677 84.0892C302.677 118.681 278.021 135.793 252.997 135.793Z"></path>
    <path d="M148.297 116.288C161.545 116.288 170.929 103.408 170.929 84.088C170.929 64.768 161.545 51.704 148.297 51.704C134.313 51.704 125.113 64.032 125.113 83.904C125.113 104.328 134.313 116.288 148.297 116.288ZM126.033 133.4H100.641V0H126.033V47.104C131.369 37.72 142.041 32.2 154.553 32.2C178.473 32.2 197.609 52.808 197.609 83.904C197.609 115.552 178.105 135.792 154.553 135.792C144.249 135.792 132.473 131.928 126.033 120.888V133.4Z"></path>
    <path d="M65.872 95.496V88.136C37.352 91.08 26.128 94.392 26.128 105.432C26.128 112.608 31.648 118.496 43.24 118.496C59.248 118.496 65.872 110.032 65.872 95.496ZM68.08 121.072C60.904 131.376 50.6 135.792 35.696 135.792C16.744 135.792 0 124.752 0 106.72C0 83.352 26.128 76.36 65.136 71.944V70.288C65.136 55.016 56.856 49.68 46.552 49.68C36.8 49.68 28.704 54.648 28.152 65.688H4.416C6.44 46.184 22.264 31.832 47.84 31.832C71.208 31.832 90.528 42.136 90.528 75.44C90.528 78.384 90.16 91.816 90.16 100.648C90.16 116.288 91.08 125.12 93.104 133.4H69.736C69 130.272 68.632 126.04 68.08 121.072Z"></path>
  </g>
</svg>