<svg viewBox="0 0 725 246" width="100%" height="100%" preserveAspectRatio="xMinYMin" fill="none"
    xmlns="http://www.w3.org/2000/svg">
    <g transform="translate(0, 110)" width="608" height="129" fill="var(--color--bg-200)">
        <path
            d="M561.49 26.864V0H586.882V26.864H607.49V44.344H586.882V95.496C586.882 105.616 590.378 107.64 599.394 107.64H607.122V125.856H588.538C565.722 125.856 561.49 118.864 561.49 99.176V44.344H547.506V26.864H561.49Z"></path>
        <path
            d="M502.536 24.656C523.328 24.656 543.936 36.248 547.432 60.72H523.144C521.12 51.152 512.288 44.344 502.536 44.344C489.288 44.344 478.8 55.568 478.8 76.176C478.8 96.968 488.736 108.56 502.72 108.56C511.552 108.56 520.568 103.96 524.064 92.184H548.352C542.464 119.232 522.04 128.248 501.432 128.248C471.808 128.248 452.856 106.536 452.856 76.544C452.856 46.368 472.912 24.656 502.536 24.656Z"></path>
        <path
            d="M422.687 87.952V80.592C394.167 83.536 382.943 86.848 382.943 97.888C382.943 105.064 388.463 110.952 400.055 110.952C416.063 110.952 422.687 102.488 422.687 87.952ZM424.895 113.528C417.719 123.832 407.415 128.248 392.511 128.248C373.559 128.248 356.815 117.208 356.815 99.176C356.815 75.808 382.943 68.816 421.951 64.4V62.744C421.951 47.472 413.671 42.136 403.367 42.136C393.615 42.136 385.519 47.104 384.967 58.144H361.231C363.255 38.64 379.079 24.288 404.655 24.288C428.023 24.288 447.343 34.592 447.343 67.896C447.343 70.84 446.975 84.272 446.975 93.104C446.975 108.744 447.895 117.576 449.919 125.856H426.551C425.815 122.728 425.447 118.496 424.895 113.528Z"></path>
        <path
            d="M309.633 26.864V0H335.025V26.864H355.633V44.344H335.025V95.496C335.025 105.616 338.521 107.64 347.537 107.64H355.265V125.856H336.681C313.865 125.856 309.633 118.864 309.633 99.176V44.344H295.649V26.864H309.633Z"></path>
        <path
            d="M229.28 26.864V39.928C234.984 29.808 245.656 24.656 257.984 24.656C281.72 24.656 292.208 39.008 292.208 63.48V125.856H266.816V69C266.816 56.304 264.056 45.08 249.704 45.08C232.96 45.08 229.28 58.696 229.28 74.336V125.856H203.888V26.864H229.28Z"></path>
        <path
            d="M147.253 44.528C133.269 44.528 123.333 55.752 123.333 76.544C123.333 97.336 133.269 108.376 147.253 108.376C161.237 108.376 171.173 97.336 171.173 76.544C171.173 55.752 161.237 44.528 147.253 44.528ZM147.253 128.248C122.229 128.248 97.5732 111.136 97.5732 76.544C97.5732 41.768 122.229 24.656 147.253 24.656C172.277 24.656 196.933 41.768 196.933 76.544C196.933 111.136 172.277 128.248 147.253 128.248Z"></path>
        <path
            d="M49.68 24.656C70.472 24.656 91.08 36.248 94.576 60.72H70.288C68.264 51.152 59.432 44.344 49.68 44.344C36.432 44.344 25.944 55.568 25.944 76.176C25.944 96.968 35.88 108.56 49.864 108.56C58.696 108.56 67.712 103.96 71.208 92.184H95.496C89.608 119.232 69.184 128.248 48.576 128.248C18.952 128.248 0 106.536 0 76.544C0 46.368 20.056 24.656 49.68 24.656Z"></path>
    </g>
</svg>